<svg width="150" height="57" viewBox="0 0 293 57" fill="none" xmlns="http://www.w3.org/2000/svg">
<rect width="57" height="57" rx="10" fill="url(#paint0_linear_3_94)"/>
<path d="M13.4442 40.5222C13.491 45.6836 17.675 46.5746 28.5 46.5446C39.3447 46.5834 43.5544 45.7045 43.5558 40.5222C43.5451 31.1104 40.1964 28.5161 28.5 28.4776C19.0075 28.5274 13.4496 28.2511 13.4442 40.5222Z" fill="white"/>
<ellipse cx="22.4777" cy="17.4367" rx="5.0186" ry="7.02604" transform="rotate(-5 22.4777 17.4367)" fill="white"/>
<ellipse cx="34.5223" cy="17.4367" rx="5.0186" ry="7.02604" transform="rotate(5 34.5223 17.4367)" fill="white"/>
<ellipse cx="45.5632" cy="24.4627" rx="4.01488" ry="6.02232" transform="rotate(15 45.5632 24.4627)" fill="white"/>
<ellipse cx="11.4368" cy="24.4627" rx="4.01488" ry="6.02232" transform="rotate(-15 11.4368 24.4627)" fill="white"/>
<path d="M83.5561 32.85C82.3761 32.85 81.3061 32.69 80.3461 32.37C79.4061 32.05 78.5261 31.57 77.7061 30.93L78.7861 29.52C79.2461 29.86 79.7761 30.12 80.3761 30.3C80.9961 30.46 81.6361 30.54 82.2961 30.54C83.5961 30.54 84.7261 30.28 85.6861 29.76C86.6461 29.22 87.3761 28.49 87.8761 27.57C88.3961 26.65 88.6561 25.6 88.6561 24.42C88.6561 23.04 88.2961 21.91 87.5761 21.03C86.8761 20.13 85.7461 19.68 84.1861 19.68C83.4261 19.68 82.6461 19.86 81.8461 20.22C81.0661 20.56 80.2061 21.08 79.2661 21.78V20.52C80.0261 19.78 80.6961 19.19 81.2761 18.75C81.8561 18.31 82.5461 17.96 83.3461 17.7C84.1461 17.42 85.0761 17.28 86.1361 17.28C87.4561 17.28 88.5961 17.59 89.5561 18.21C90.5161 18.83 91.2361 19.65 91.7161 20.67C92.2161 21.69 92.4661 22.8 92.4661 24C92.4661 25.58 92.1361 27.04 91.4761 28.38C90.8161 29.72 89.8161 30.8 88.4761 31.62C87.1561 32.44 85.5161 32.85 83.5561 32.85ZM77.4061 39.78C76.6661 39.78 76.1261 39.59 75.7861 39.21C75.4461 38.83 75.2761 38.21 75.2761 37.35C75.2761 36.19 75.4361 34.43 75.7561 32.07C76.0761 29.71 76.6861 25.79 77.5861 20.31L76.6561 18.48C77.9961 17.64 79.1861 17.22 80.2261 17.22C81.1061 17.22 81.5461 17.75 81.5461 18.81C81.5461 18.99 81.4561 19.64 81.2761 20.76C81.0961 21.86 80.8961 23.09 80.6761 24.45C80.0961 28.11 79.6661 30.83 79.3861 32.61C79.1261 34.39 78.9961 35.64 78.9961 36.36C78.9961 36.94 79.0561 37.45 79.1761 37.89C79.2961 38.33 79.4761 38.7 79.7161 39C78.9361 39.52 78.1661 39.78 77.4061 39.78ZM101.957 39.75C99.8369 39.75 98.1769 39.1 96.9769 37.8C95.7769 36.5 95.1769 34.71 95.1769 32.43C95.1769 30.27 95.6469 28.32 96.5869 26.58C97.5269 24.84 98.8269 23.48 100.487 22.5C102.147 21.5 103.997 21 106.037 21C107.617 21 108.847 21.38 109.727 22.14C110.627 22.9 111.077 23.95 111.077 25.29C111.077 26.71 110.567 27.93 109.547 28.95C108.527 29.95 107.037 30.72 105.077 31.26C103.137 31.78 100.787 32.04 98.0269 32.04L98.3869 30.36C101.367 30.38 103.677 29.94 105.317 29.04C106.977 28.12 107.807 26.84 107.807 25.2C107.807 24.5 107.597 23.94 107.177 23.52C106.757 23.1 106.207 22.89 105.527 22.89C104.347 22.89 103.247 23.33 102.227 24.21C101.207 25.07 100.397 26.25 99.7969 27.75C99.1969 29.23 98.8969 30.85 98.8969 32.61C98.8969 34.21 99.1969 35.47 99.7969 36.39C100.397 37.29 101.217 37.74 102.257 37.74C103.557 37.74 104.617 37.33 105.437 36.51C106.257 35.69 106.707 34.6 106.787 33.24C107.567 33.24 108.167 33.39 108.587 33.69C109.007 33.97 109.217 34.42 109.217 35.04C109.217 35.84 108.897 36.61 108.257 37.35C107.617 38.07 106.737 38.65 105.617 39.09C104.517 39.53 103.297 39.75 101.957 39.75ZM118.649 39.75C118.029 39.75 117.539 39.57 117.179 39.21C116.819 38.85 116.639 38.18 116.639 37.2C116.639 36.22 116.769 35.1 117.029 33.84C117.289 32.58 117.669 30.96 118.169 28.98C118.629 27.18 118.969 25.75 119.189 24.69C119.409 23.61 119.519 22.68 119.519 21.9C119.519 21.18 119.419 20.37 119.219 19.47L119.159 19.23C119.499 18.87 119.949 18.59 120.509 18.39C121.069 18.17 121.619 18.06 122.159 18.06C122.739 18.06 123.159 18.19 123.419 18.45C123.679 18.71 123.809 19.14 123.809 19.74C123.809 20.22 123.709 20.84 123.509 21.6C123.329 22.36 123.029 23.43 122.609 24.81C121.849 27.33 121.249 29.53 120.809 31.41C120.389 33.27 120.189 35.15 120.209 37.05L121.169 38.67C120.809 39.03 120.399 39.3 119.939 39.48C119.499 39.66 119.069 39.75 118.649 39.75ZM117.119 25.86C116.619 25.86 116.259 25.77 116.039 25.59C115.819 25.39 115.709 25.09 115.709 24.69C115.709 24.17 115.869 23.68 116.189 23.22C116.749 23.4 117.659 23.49 118.919 23.49C119.679 23.49 120.679 23.38 121.919 23.16C122.439 23.08 122.979 23.01 123.539 22.95C124.099 22.87 124.609 22.83 125.069 22.83C125.589 22.83 125.949 22.93 126.149 23.13C126.349 23.33 126.449 23.63 126.449 24.03C126.449 24.55 126.289 25.02 125.969 25.44C125.669 25.36 125.259 25.3 124.739 25.26C124.239 25.2 123.769 25.17 123.329 25.17C122.909 25.17 122.429 25.21 121.889 25.29C121.349 25.35 120.829 25.42 120.329 25.5C118.889 25.74 117.819 25.86 117.119 25.86ZM138.494 39.72C137.934 39.72 137.504 39.5 137.204 39.06C136.924 38.64 136.784 38.03 136.784 37.23C136.784 35.67 137.504 33.37 138.944 30.33C140.404 27.29 142.534 23.62 145.334 19.32L144.404 18.06C144.984 17.7 145.524 17.44 146.024 17.28C146.544 17.12 147.094 17.04 147.674 17.04C148.494 17.04 149.004 17.24 149.204 17.64C149.684 17.24 150.204 17.04 150.764 17.04C151.364 17.04 151.814 17.25 152.114 17.67C152.414 18.07 152.564 18.7 152.564 19.56C152.564 20.62 152.554 21.46 152.534 22.08C152.514 24.94 152.524 27.37 152.564 29.37C152.624 31.37 152.814 33.28 153.134 35.1C153.454 36.92 153.974 38.2 154.694 38.94C154.034 39.46 153.264 39.72 152.384 39.72C151.444 39.72 150.714 39.38 150.194 38.7C149.694 38 149.334 36.84 149.114 35.22C148.914 33.58 148.814 31.23 148.814 28.17C148.814 26.37 148.814 24.8 148.814 23.46C148.814 22.1 148.824 20.94 148.844 19.98H148.484C145.784 24 143.784 27.37 142.484 30.09C141.184 32.79 140.534 34.88 140.534 36.36C140.534 36.9 140.564 37.38 140.624 37.8C140.704 38.22 140.814 38.6 140.954 38.94C140.614 39.2 140.244 39.39 139.844 39.51C139.444 39.65 138.994 39.72 138.494 39.72ZM140.234 31.26H150.614L150.224 33.39H139.784L140.234 31.26ZM163.975 39.75C162.895 39.75 161.935 39.46 161.095 38.88C160.275 38.3 159.635 37.48 159.175 36.42C158.735 35.34 158.515 34.1 158.515 32.7C158.515 30.68 159.025 28.84 160.045 27.18C161.065 25.5 162.455 24.18 164.215 23.22C165.975 22.24 167.915 21.75 170.035 21.75C171.115 21.75 172.055 21.83 172.855 21.99C173.095 22.37 173.215 22.84 173.215 23.4C170.995 23.4 169.055 23.79 167.395 24.57C165.735 25.35 164.455 26.44 163.555 27.84C162.655 29.22 162.205 30.81 162.205 32.61C162.205 33.97 162.485 35.03 163.045 35.79C163.605 36.55 164.395 36.93 165.415 36.93C166.515 36.93 167.595 36.44 168.655 35.46C169.715 34.48 170.535 33.16 171.115 31.5L170.845 35.58L170.245 35.34C169.525 36.74 168.615 37.83 167.515 38.61C166.435 39.37 165.255 39.75 163.975 39.75ZM172.315 39.75C171.695 39.75 171.225 39.55 170.905 39.15C170.585 38.77 170.425 38.18 170.425 37.38C170.425 36.62 170.635 34.85 171.055 32.07C171.475 29.27 171.985 26.05 172.585 22.41C172.725 21.71 172.845 21.04 172.945 20.4C173.065 19.74 173.175 19.12 173.275 18.54L171.955 17.04C172.435 16.64 172.995 16.33 173.635 16.11C174.275 15.87 174.865 15.75 175.405 15.75C175.965 15.75 176.365 15.88 176.605 16.14C176.845 16.38 176.965 16.8 176.965 17.4C176.965 17.8 176.875 18.42 176.695 19.26C176.535 20.1 176.345 21.02 176.125 22.02C175.465 24.94 174.935 27.58 174.535 29.94C174.135 32.28 173.935 34.66 173.935 37.08C173.935 37.44 173.985 37.79 174.085 38.13C174.205 38.47 174.365 38.73 174.565 38.91C174.245 39.17 173.895 39.37 173.515 39.51C173.155 39.67 172.755 39.75 172.315 39.75ZM188.307 39.75C186.867 39.75 185.597 39.43 184.497 38.79C183.417 38.13 182.577 37.21 181.977 36.03C181.397 34.83 181.107 33.44 181.107 31.86C181.107 29.74 181.547 27.86 182.427 26.22C183.327 24.58 184.577 23.3 186.177 22.38C187.777 21.46 189.587 21 191.607 21C192.447 21 193.217 21.08 193.917 21.24C194.137 21.56 194.267 22.03 194.307 22.65C192.307 22.65 190.597 23.05 189.177 23.85C187.757 24.65 186.677 25.77 185.937 27.21C185.197 28.63 184.827 30.25 184.827 32.07C184.827 33.85 185.157 35.24 185.817 36.24C186.477 37.24 187.417 37.74 188.637 37.74C189.817 37.74 190.877 37.41 191.817 36.75C192.777 36.09 193.557 35.15 194.157 33.93C194.777 32.71 195.167 31.29 195.327 29.67C194.507 29.15 193.907 28.58 193.527 27.96C193.167 27.34 192.987 26.61 192.987 25.77C192.987 25.27 193.087 24.82 193.287 24.42C193.507 24 193.797 23.68 194.157 23.46C194.517 23.22 194.927 23.1 195.387 23.1C196.307 23.1 197.027 23.51 197.547 24.33C198.067 25.15 198.327 26.29 198.327 27.75C198.327 29.95 197.877 31.97 196.977 33.81C196.097 35.63 194.887 37.08 193.347 38.16C191.827 39.22 190.147 39.75 188.307 39.75ZM209.745 39C208.745 39 207.795 38.92 206.895 38.76C206.655 38.34 206.535 37.87 206.535 37.35C208.735 37.35 210.665 36.97 212.325 36.21C214.005 35.43 215.295 34.35 216.195 32.97C217.115 31.57 217.575 29.96 217.575 28.14C217.575 26.78 217.285 25.72 216.705 24.96C216.145 24.2 215.355 23.82 214.335 23.82C213.315 23.82 212.365 24.3 211.485 25.26C210.625 26.2 209.845 27.59 209.145 29.43C208.445 31.25 207.815 33.5 207.255 36.18L207.975 24.75L209.535 25.89C210.235 24.33 211.135 23.13 212.235 22.29C213.335 21.43 214.515 21 215.775 21C216.855 21 217.805 21.29 218.625 21.87C219.465 22.45 220.105 23.28 220.545 24.36C221.005 25.42 221.235 26.65 221.235 28.05C221.235 30.07 220.725 31.92 219.705 33.6C218.705 35.26 217.325 36.58 215.565 37.56C213.805 38.52 211.865 39 209.745 39ZM205.185 45C204.565 45 204.095 44.79 203.775 44.37C203.455 43.97 203.295 43.35 203.295 42.51C203.295 41.73 203.565 39.52 204.105 35.88C204.665 32.22 205.345 28.19 206.145 23.79L204.825 22.29C205.305 21.91 205.865 21.6 206.505 21.36C207.145 21.12 207.735 21 208.275 21C208.835 21 209.235 21.13 209.475 21.39C209.715 21.63 209.835 22.05 209.835 22.65C209.835 23.05 209.765 23.6 209.625 24.3C209.505 24.98 209.295 25.96 208.995 27.24C208.315 30.2 207.775 32.86 207.375 35.22C206.995 37.56 206.805 39.94 206.805 42.36C206.805 42.74 206.865 43.09 206.985 43.41C207.105 43.75 207.255 44 207.435 44.16C207.135 44.44 206.795 44.65 206.415 44.79C206.035 44.93 205.625 45 205.185 45ZM229.772 39.75C229.152 39.75 228.662 39.57 228.302 39.21C227.942 38.85 227.762 38.18 227.762 37.2C227.762 36.22 227.892 35.1 228.152 33.84C228.412 32.58 228.792 30.96 229.292 28.98C229.752 27.18 230.092 25.75 230.312 24.69C230.532 23.61 230.642 22.68 230.642 21.9C230.642 21.18 230.542 20.37 230.342 19.47L230.282 19.23C230.622 18.87 231.072 18.59 231.632 18.39C232.192 18.17 232.742 18.06 233.282 18.06C233.862 18.06 234.282 18.19 234.542 18.45C234.802 18.71 234.932 19.14 234.932 19.74C234.932 20.22 234.832 20.84 234.632 21.6C234.452 22.36 234.152 23.43 233.732 24.81C232.972 27.33 232.372 29.53 231.932 31.41C231.512 33.27 231.312 35.15 231.332 37.05L232.292 38.67C231.932 39.03 231.522 39.3 231.062 39.48C230.622 39.66 230.192 39.75 229.772 39.75ZM228.242 25.86C227.742 25.86 227.382 25.77 227.162 25.59C226.942 25.39 226.832 25.09 226.832 24.69C226.832 24.17 226.992 23.68 227.312 23.22C227.872 23.4 228.782 23.49 230.042 23.49C230.802 23.49 231.802 23.38 233.042 23.16C233.562 23.08 234.102 23.01 234.662 22.95C235.222 22.87 235.732 22.83 236.192 22.83C236.712 22.83 237.072 22.93 237.272 23.13C237.472 23.33 237.572 23.63 237.572 24.03C237.572 24.55 237.412 25.02 237.092 25.44C236.792 25.36 236.382 25.3 235.862 25.26C235.362 25.2 234.892 25.17 234.452 25.17C234.032 25.17 233.552 25.21 233.012 25.29C232.472 25.35 231.952 25.42 231.452 25.5C230.012 25.74 228.942 25.86 228.242 25.86ZM241.99 39.75C241.31 39.75 240.8 39.58 240.46 39.24C240.12 38.9 239.95 38.36 239.95 37.62C239.95 36.8 240.14 35.34 240.52 33.24C240.92 31.14 241.59 27.98 242.53 23.76L241.21 22.26C241.69 21.88 242.24 21.58 242.86 21.36C243.5 21.12 244.08 21 244.6 21C245.2 21 245.62 21.13 245.86 21.39C246.12 21.63 246.25 22.05 246.25 22.65C246.25 22.75 246.19 23.05 246.07 23.55C245.97 24.05 245.84 24.61 245.68 25.23C245.06 27.77 244.54 30.07 244.12 32.13C243.72 34.19 243.52 35.93 243.52 37.35C243.52 38.11 243.7 38.64 244.06 38.94C243.4 39.48 242.71 39.75 241.99 39.75ZM244.66 18.45C244.02 18.45 243.51 18.3 243.13 18C242.75 17.68 242.56 17.26 242.56 16.74C242.56 16.34 242.67 15.97 242.89 15.63C243.13 15.29 243.45 15.02 243.85 14.82C244.25 14.6 244.71 14.49 245.23 14.49C245.89 14.49 246.4 14.65 246.76 14.97C247.14 15.27 247.33 15.67 247.33 16.17C247.33 16.81 247.08 17.35 246.58 17.79C246.08 18.23 245.44 18.45 244.66 18.45ZM258.121 39.75C256.681 39.75 255.411 39.43 254.311 38.79C253.231 38.13 252.391 37.21 251.791 36.03C251.211 34.83 250.921 33.44 250.921 31.86C250.921 29.74 251.361 27.86 252.241 26.22C253.141 24.58 254.391 23.3 255.991 22.38C257.591 21.46 259.401 21 261.421 21C262.261 21 263.031 21.08 263.731 21.24C263.951 21.56 264.081 22.03 264.121 22.65C262.121 22.65 260.411 23.05 258.991 23.85C257.571 24.65 256.491 25.77 255.751 27.21C255.011 28.63 254.641 30.25 254.641 32.07C254.641 33.85 254.971 35.24 255.631 36.24C256.291 37.24 257.231 37.74 258.451 37.74C259.631 37.74 260.691 37.41 261.631 36.75C262.591 36.09 263.371 35.15 263.971 33.93C264.591 32.71 264.981 31.29 265.141 29.67C264.321 29.15 263.721 28.58 263.341 27.96C262.981 27.34 262.801 26.61 262.801 25.77C262.801 25.27 262.901 24.82 263.101 24.42C263.321 24 263.611 23.68 263.971 23.46C264.331 23.22 264.741 23.1 265.201 23.1C266.121 23.1 266.841 23.51 267.361 24.33C267.881 25.15 268.141 26.29 268.141 27.75C268.141 29.95 267.691 31.97 266.791 33.81C265.911 35.63 264.701 37.08 263.161 38.16C261.641 39.22 259.961 39.75 258.121 39.75ZM275.389 39.75C274.689 39.75 274.169 39.58 273.829 39.24C273.509 38.9 273.349 38.36 273.349 37.62C273.349 36.74 273.609 34.93 274.129 32.19C274.669 29.43 275.279 26.7 275.959 24L274.609 22.5C275.089 22.08 275.649 21.74 276.289 21.48C276.949 21.22 277.539 21.09 278.059 21.09C278.659 21.09 279.079 21.21 279.319 21.45C279.559 21.69 279.679 22.12 279.679 22.74C279.679 23.26 279.589 23.85 279.409 24.51C279.249 25.17 279.029 25.78 278.749 26.34L279.049 26.49C281.069 22.83 283.689 21 286.909 21C288.209 21 289.169 21.33 289.789 21.99C290.429 22.63 290.749 23.63 290.749 24.99C290.749 25.79 290.659 26.62 290.479 27.48C290.319 28.34 290.079 29.42 289.759 30.72C289.379 32.24 289.099 33.49 288.919 34.47C288.739 35.43 288.649 36.39 288.649 37.35C288.649 38.07 288.779 38.59 289.039 38.91C288.439 39.47 287.799 39.75 287.119 39.75C286.439 39.75 285.929 39.58 285.589 39.24C285.269 38.9 285.109 38.36 285.109 37.62C285.109 36.86 285.189 36.01 285.349 35.07C285.529 34.11 285.779 32.87 286.099 31.35C286.399 30.09 286.619 29.04 286.759 28.2C286.919 27.34 286.999 26.6 286.999 25.98C286.999 24.36 286.389 23.55 285.169 23.55C283.749 23.55 282.399 24.23 281.119 25.59C279.859 26.93 278.839 28.67 278.059 30.81C277.299 32.95 276.919 35.13 276.919 37.35C276.919 38.09 277.039 38.61 277.279 38.91C276.679 39.47 276.049 39.75 275.389 39.75Z" fill="#0091AD"/>
<defs>
<linearGradient id="paint0_linear_3_94" x1="28.5" y1="0" x2="28.5" y2="57" gradientUnits="userSpaceOnUse">
<stop stop-color="#0091AD" stop-opacity="0.7"/>
<stop offset="1" stop-color="#0091AD"/>
</linearGradient>
</defs>
</svg>
